<svg width="169" height="40" viewBox="0 0 169 40" fill="none" xmlns="http://www.w3.org/2000/svg">
<path fill-rule="evenodd" clip-rule="evenodd" d="M24.1389 23.6489H31.4368V9.05273H16.8407V16.351H24.1389V23.6489ZM16.8408 30.9469H9.54281V23.6489H16.8408V30.9469ZM0.489746 35.6284V4.3716C0.489746 1.95716 2.4469 0 4.86135 0H36.1181C38.5326 0 40.4897 1.95716 40.4897 4.3716V35.6284C40.4897 38.0426 38.5326 40 36.1181 40H4.86135C2.4469 40 0.489746 38.0426 0.489746 35.6284ZM164.811 21.3909C164.811 22.5777 164.481 23.5044 163.824 24.1717C163.165 24.8396 162.336 25.1734 161.335 25.1734C160.296 25.1734 159.443 24.8214 158.776 24.1162C158.109 23.4117 157.775 22.4946 157.775 21.3632C157.775 20.2507 158.113 19.3425 158.79 18.6371C159.466 17.9334 160.314 17.5808 161.335 17.5808C162.317 17.5808 163.142 17.9188 163.81 18.5957C164.477 19.2725 164.811 20.2042 164.811 21.3909ZM168.51 7.06722H164.756V15.8284C163.754 14.7345 162.382 14.1874 160.64 14.1874C158.711 14.1874 157.116 14.8684 155.856 16.2316C154.594 17.5942 153.965 19.3142 153.965 21.3907C153.965 23.4674 154.594 25.1871 155.856 26.5497C157.116 27.9124 158.711 28.594 160.64 28.594C162.642 28.594 164.116 27.9171 165.062 26.5634V28.2602H168.51V7.06722ZM128.115 28.2603H131.869V7.06738H128.115V28.2603ZM126.322 7.06738V10.4328H125.418C124.546 10.4328 123.911 10.5997 123.513 10.9335C123.114 11.2668 122.915 11.814 122.915 12.5742V14.493H126.322V17.6639H122.915V28.2603H119.16V12.2407C119.16 10.535 119.624 9.2466 120.551 8.37458C121.478 7.50367 122.785 7.06738 124.472 7.06738H126.322ZM97.4769 19.9999H103.735C103.716 19.1657 103.424 18.4936 102.858 17.9836C102.292 17.474 101.593 17.2192 100.759 17.2192C99.9613 17.2192 99.2657 17.4692 98.6726 17.9699C98.079 18.4701 97.6805 19.1475 97.4769 19.9999ZM107.127 22.6421H97.4764C97.6987 23.5141 98.1476 24.1862 98.825 24.6586C99.5013 25.1319 100.341 25.3682 101.342 25.3682C102.695 25.3682 103.975 24.9045 105.18 23.977L106.737 26.5362C105.087 27.9084 103.252 28.5942 101.231 28.5942C99.1168 28.6309 97.3232 27.9403 95.8491 26.5222C94.375 25.1033 93.6565 23.3931 93.694 21.3909C93.6565 19.4069 94.3515 17.7012 95.7797 16.2736C97.207 14.8457 98.9127 14.1506 100.897 14.1876C102.789 14.1876 104.341 14.7992 105.555 16.0232C106.77 17.247 107.377 18.7673 107.377 20.5847C107.377 21.2514 107.294 21.9384 107.127 22.6421ZM87.5213 18.6369C88.1892 19.3423 88.5225 20.26 88.5225 21.3908C88.5225 22.5034 88.1845 23.4115 87.5076 24.1161C86.8308 24.8212 85.9823 25.1732 84.963 25.1732C83.9618 25.1732 83.1315 24.8352 82.4737 24.1575C81.8151 23.4815 81.4863 22.5498 81.4863 21.3631C81.4863 20.1763 81.8151 19.2494 82.4737 18.5818C83.1315 17.9144 83.9618 17.5806 84.963 17.5806C86.0008 17.5806 86.8543 17.9332 87.5213 18.6369ZM92.3334 21.3629C92.3334 19.3047 91.698 17.5942 90.4281 16.2316C89.1584 14.8684 87.5684 14.1873 85.6586 14.1873C83.656 14.1873 82.1822 14.8642 81.2365 16.2179V14.4929H77.7879V33.266H81.5423V26.9252C82.5619 28.0378 83.9341 28.5939 85.6586 28.5939C87.5684 28.5939 89.1584 27.9031 90.4281 26.522C91.698 25.1406 92.3334 23.4209 92.3334 21.3629ZM63.4116 14.4932V22.1972C63.4116 24.1073 64.0095 25.6505 65.2058 26.8278C66.4018 28.0056 67.9263 28.5943 69.7807 28.5943C71.5978 28.5943 73.1041 28.0011 74.3002 26.8141C75.4959 25.6279 76.0941 24.0885 76.0941 22.1972V14.4932H72.3394V22.5035C72.3394 23.282 72.0983 23.9174 71.6163 24.4086C71.1341 24.8998 70.522 25.1459 69.7807 25.1459C69.0204 25.1459 68.3945 24.9045 67.9031 24.4226C67.4119 23.9404 67.1666 23.3011 67.1666 22.5035V14.4932H63.4116ZM117.468 17.8032V14.4932C117.116 14.3823 116.708 14.3268 116.245 14.3268C114.687 14.3268 113.426 14.9295 112.462 16.1342V14.4932H109.014V28.2605H112.768V21.391C112.768 20.2229 113.097 19.3327 113.756 18.7211C114.413 18.1092 115.317 17.8032 116.467 17.8032H117.468ZM133.699 14.4932V22.1972C133.699 24.1073 134.297 25.6505 135.493 26.8278C136.689 28.0056 138.213 28.5943 140.068 28.5943C141.884 28.5943 143.391 28.0011 144.587 26.8141C145.783 25.6279 146.381 24.0885 146.381 22.1972V14.4932H142.626V22.5035C142.626 23.282 142.385 23.9174 141.903 24.4086C141.421 24.8998 140.809 25.1459 140.068 25.1459C139.308 25.1459 138.682 24.9045 138.19 24.4226C137.699 23.9404 137.454 23.3011 137.454 22.5035V14.4932H133.699ZM148.211 28.2605H151.966V14.4932H148.211V28.2605ZM57.5382 17.7195L55.4522 16.8021C54.6362 16.4316 54.0756 16.1023 53.7698 15.8142C53.464 15.5274 53.3108 15.1519 53.3108 14.6884C53.3108 14.6423 53.3167 14.5997 53.3226 14.557L53.3226 14.5569V14.5569V14.5569V14.5568C53.3256 14.5358 53.3285 14.5148 53.3307 14.4932H49.5139C49.5124 14.5255 49.5104 14.5575 49.5083 14.5895L49.5083 14.5896C49.5045 14.6496 49.5007 14.7097 49.5007 14.7716C49.5007 16.9783 50.9837 18.7397 53.9507 20.0561L55.9249 20.9458C56.8521 21.3728 57.473 21.7296 57.7886 22.0166C58.1039 22.3039 58.2615 22.708 58.2615 23.2261C58.2615 23.8573 58.0294 24.3527 57.5662 24.7145C57.1025 25.076 56.4626 25.2566 55.6471 25.2566C53.9409 25.2566 52.4391 24.3664 51.1414 22.5868L48.555 24.5333C49.2781 25.7948 50.2559 26.7862 51.4892 27.5095C52.7219 28.2328 54.1081 28.5943 55.6471 28.5943C57.5194 28.5943 59.0585 28.0892 60.2638 27.0785C61.4688 26.0679 62.0717 24.7377 62.0717 23.0875C62.0717 21.8634 61.7099 20.8396 60.9871 20.0144C60.2638 19.1894 59.114 18.4246 57.5382 17.7195ZM56.6094 9.03068H62.072V14.4933H59.3408V11.7621H56.6094V9.03068ZM151.965 14.493H156.104V10.3538H151.965V14.493Z" fill="white"/>
</svg>